<svg id="visual" viewBox="0 0 960 540" width="960" height="540" xmlns="http://www.w3.org/2000/svg" xmlns:xlink="http://www.w3.org/1999/xlink" version="1.1"><path d="M0 77L14.5 70.7C29 64.3 58 51.7 87.2 52.5C116.3 53.3 145.7 67.7 174.8 74.8C204 82 233 82 262 79.3C291 76.7 320 71.3 349 65C378 58.7 407 51.3 436.2 52.2C465.3 53 494.7 62 523.8 61.2C553 60.3 582 49.7 611 50.7C640 51.7 669 64.3 698 69.7C727 75 756 73 785.2 75.7C814.3 78.3 843.7 85.7 872.8 82.2C902 78.7 931 64.3 945.5 57.2L960 50L960 0L945.5 0C931 0 902 0 872.8 0C843.7 0 814.3 0 785.2 0C756 0 727 0 698 0C669 0 640 0 611 0C582 0 553 0 523.8 0C494.7 0 465.3 0 436.2 0C407 0 378 0 349 0C320 0 291 0 262 0C233 0 204 0 174.8 0C145.7 0 116.3 0 87.2 0C58 0 29 0 14.5 0L0 0Z" fill="#282a48"></path><path d="M0 125L14.5 125C29 125 58 125 87.2 135.8C116.3 146.7 145.7 168.3 174.8 170.2C204 172 233 154 262 145C291 136 320 136 349 140.5C378 145 407 154 436.2 157.7C465.3 161.3 494.7 159.7 523.8 157.8C553 156 582 154 611 163.8C640 173.7 669 195.3 698 203.5C727 211.7 756 206.3 785.2 207.2C814.3 208 843.7 215 872.8 198.8C902 182.7 931 143.3 945.5 123.7L960 104L960 48L945.5 55.2C931 62.3 902 76.7 872.8 80.2C843.7 83.7 814.3 76.3 785.2 73.7C756 71 727 73 698 67.7C669 62.3 640 49.7 611 48.7C582 47.7 553 58.3 523.8 59.2C494.7 60 465.3 51 436.2 50.2C407 49.3 378 56.7 349 63C320 69.3 291 74.7 262 77.3C233 80 204 80 174.8 72.8C145.7 65.7 116.3 51.3 87.2 50.5C58 49.7 29 62.3 14.5 68.7L0 75Z" fill="#1b1d31"></path><path d="M0 222L14.5 224.8C29 227.7 58 233.3 87.2 248.7C116.3 264 145.7 289 174.8 310.5C204 332 233 350 262 353.7C291 357.3 320 346.7 349 351.2C378 355.7 407 375.3 436.2 359.2C465.3 343 494.7 291 523.8 272.2C553 253.3 582 267.7 611 296.3C640 325 669 368 698 390.5C727 413 756 415 785.2 401.5C814.3 388 843.7 359 872.8 324.8C902 290.7 931 251.3 945.5 231.7L960 212L960 102L945.5 121.7C931 141.3 902 180.7 872.8 196.8C843.7 213 814.3 206 785.2 205.2C756 204.3 727 209.7 698 201.5C669 193.3 640 171.7 611 161.8C582 152 553 154 523.8 155.8C494.7 157.7 465.3 159.3 436.2 155.7C407 152 378 143 349 138.5C320 134 291 134 262 143C233 152 204 170 174.8 168.2C145.7 166.3 116.3 144.7 87.2 133.8C58 123 29 123 14.5 123L0 123Z" fill="#0f0f1c"></path><path d="M0 330L14.5 328.3C29 326.7 58 323.3 87.2 334.2C116.3 345 145.7 370 174.8 388.8C204 407.7 233 420.3 262 420.3C291 420.3 320 407.7 349 408.5C378 409.3 407 423.7 436.2 413.8C465.3 404 494.7 370 523.8 351.2C553 332.3 582 328.7 611 353C640 377.3 669 429.7 698 453C727 476.3 756 470.7 785.2 455.3C814.3 440 843.7 415 872.8 388C902 361 931 332 945.5 317.5L960 303L960 210L945.5 229.7C931 249.3 902 288.7 872.8 322.8C843.7 357 814.3 386 785.2 399.5C756 413 727 411 698 388.5C669 366 640 323 611 294.3C582 265.7 553 251.3 523.8 270.2C494.7 289 465.3 341 436.2 357.2C407 373.3 378 353.7 349 349.2C320 344.7 291 355.3 262 351.7C233 348 204 330 174.8 308.5C145.7 287 116.3 262 87.2 246.7C58 231.3 29 225.7 14.5 222.8L0 220Z" fill="#0e0e1a"></path><path d="M0 541L14.5 541C29 541 58 541 87.2 541C116.3 541 145.7 541 174.8 541C204 541 233 541 262 541C291 541 320 541 349 541C378 541 407 541 436.2 541C465.3 541 494.7 541 523.8 541C553 541 582 541 611 541C640 541 669 541 698 541C727 541 756 541 785.2 541C814.3 541 843.7 541 872.8 541C902 541 931 541 945.5 541L960 541L960 301L945.5 315.5C931 330 902 359 872.8 386C843.7 413 814.3 438 785.2 453.3C756 468.7 727 474.3 698 451C669 427.7 640 375.3 611 351C582 326.7 553 330.3 523.8 349.2C494.7 368 465.3 402 436.2 411.8C407 421.7 378 407.3 349 406.5C320 405.7 291 418.3 262 418.3C233 418.3 204 405.7 174.8 386.8C145.7 368 116.3 343 87.2 332.2C58 321.3 29 324.7 14.5 326.3L0 328Z" fill="#0c0c17"></path></svg>